<?xml version="1.0" encoding="utf-8"?>
<!-- Generator: Adobe Illustrator 26.2.0, SVG Export Plug-In . SVG Version: 6.00 Build 0)  -->
<svg version="1.1" id="Layer_1" xmlns="http://www.w3.org/2000/svg" xmlns:xlink="http://www.w3.org/1999/xlink" x="0px" y="0px"
	 viewBox="0 0 347 352" style="enable-background:new 0 0 347 352;" xml:space="preserve">
<style type="text/css">
	.st0{fill:#F44B4F;}
	.st1{fill:#FDDBAF;}
	.st2{fill:#FFFFFF;}
	.st3{fill:#471F3A;}
	.st4{fill:#451B37;}
	.st5{fill:#739043;}
	.st6{fill:#476AC7;}
	.st7{fill:#FCCD25;}
	.st8{fill:#4E273F;}
	.st9{fill:#FFA2A4;}
	.st10{fill:#7A7A7A;}
	.st11{fill:#8D3B52;}
	.st12{fill:#4D2A44;}
	.st13{fill:#4F273F;}
	.st14{fill:#DD8085;}
	.st15{fill:#CDD3CF;}
</style>
<g>
	<g>
		<rect x="34.9" y="27.4" class="st0" width="237.9" height="244.1"/>
	</g>
	<g>
		<rect x="40.5" y="58.9" class="st1" width="232.3" height="212.5"/>
	</g>
	<rect x="54.8" y="223.1" class="st2" width="76" height="7"/>
	<rect x="54.8" y="237.2" class="st2" width="53.2" height="7"/>
	<g>
		<path class="st3" d="M220.7,172.6l-48.3,57.2c0,0-18.6-28.5-2.2-44.6c1.4,2.9,2.5,4.8,2.5,4.8s11.8-12,21.9-13.2
			c0,0-12.8-19.9-22.9-25.3c-0.3-2.3-0.2-4.8,0.8-7.7C178.7,126.1,220.7,172.6,220.7,172.6z"/>
	</g>
	<g>
		<rect x="225.3" y="8.2" class="st4" width="79.9" height="82.4"/>
	</g>
	<g>
		<rect x="230" y="8.2" class="st5" width="75.2" height="78.3"/>
	</g>
	<g>
		<rect x="73.3" y="42.6" class="st6" width="44" height="46.1"/>
	</g>
	<g>
		<rect x="77.9" y="47.3" class="st7" width="39.4" height="41.4"/>
	</g>
	<g>
		<rect x="16.3" y="87.3" transform="matrix(0.866 -0.5 0.5 0.866 -50.0411 33.9292)" class="st8" width="44" height="46.1"/>
	</g>
	<g>
		<rect x="21.8" y="90.5" transform="matrix(0.866 -0.5 0.5 0.866 -50.0503 35.6404)" class="st6" width="39.4" height="41.4"/>
	</g>
	<g>
		<path class="st2" d="M107.6,56.8v19.1c0,0.9-0.7,1.6-1.6,1.6H87c-0.9,0-1.6-0.7-1.6-1.6V56.8c0-0.9,0.7-1.6,1.6-1.6H106
			C106.9,55.2,107.6,55.9,107.6,56.8z M104.5,58.4H88.6v15.7h15.9V58.4z M90.2,61.5c0-0.9,0.7-1.6,1.6-1.6s1.6,0.7,1.6,1.6
			s-0.7,1.6-1.6,1.6S90.2,62.4,90.2,61.5z M102.9,69.5H90.2l2.5-3.8c0.1-0.2,0.4-0.4,0.7-0.4c0.3,0,0.5,0.1,0.7,0.4l1,1.5l2.4-3.3
			c0.1-0.2,0.4-0.3,0.6-0.3c0.3,0,0.5,0.1,0.6,0.3L102.9,69.5z"/>
	</g>
	<g>
		<path class="st2" d="M58,51.5c-0.3,0-0.5-0.1-0.7-0.3L42.8,36.7c-0.4-0.4-0.4-1,0-1.4s1-0.4,1.4,0l14.5,14.5c0.4,0.4,0.4,1,0,1.4
			C58.5,51.4,58.3,51.5,58,51.5z"/>
	</g>
	<g>
		<path class="st2" d="M43.5,51.5c-0.3,0-0.5-0.1-0.7-0.3c-0.4-0.4-0.4-1,0-1.4l14.5-14.5c0.4-0.4,1-0.4,1.4,0s0.4,1,0,1.4
			L44.3,51.2C44.1,51.4,43.8,51.5,43.5,51.5z"/>
	</g>
	<g>
		<path class="st9" d="M117.9,233.7c0,0-13.1-14.2-15.7-14.5s-10.4-14.1-3.7-18c0,0-3.5-5.5,1.4-8.5c0,0-0.7-7.9,4.1-9
			c0,0-8.3-17.7-3.7-21.1c4.6-3.4,15.4,21.6,15.4,21.6s8.4,3.9,6.8,14.5c0,0,5.8,4.4,6-4.8s6.2-12.2,9.5-11.6s-3.5,5.3-2.5,11.5
			s1.3,14.7,1.8,22.9s-0.5,12-0.5,12L117.9,233.7"/>
	</g>
	<g>
		<path class="st10" d="M123.8,183.7c-8.6,0-15.6-7.1-15.6-15.8c0-8.7,7-15.8,15.6-15.8s15.6,7.1,15.6,15.8
			C139.4,176.7,132.4,183.7,123.8,183.7z M123.8,155.9c-6.6,0-11.9,5.4-11.9,12.1c0,6.7,5.3,12.1,11.9,12.1s11.9-5.4,11.9-12.1
			C135.7,161.3,130.4,155.9,123.8,155.9z"/>
	</g>
	<g>
		<path class="st2" d="M122.4,184.9c-9.3,0-16.9-7.6-16.9-16.9c0-9.3,7.6-16.9,16.9-16.9s16.9,7.6,16.9,16.9
			C139.4,177.3,131.8,184.9,122.4,184.9z M122.4,155c-7.1,0-12.9,5.8-12.9,12.9c0,7.1,5.8,12.9,12.9,12.9s12.9-5.8,12.9-12.9
			C135.4,160.8,129.6,155,122.4,155z"/>
	</g>
	<g>
		<path class="st2" d="M134.4,189.3c-0.1,0-0.2,0-0.4,0c-1.1-0.2-1.8-1.2-1.6-2.3l6.2-34.3c0.2-1.1,1.2-1.8,2.3-1.6
			c1.1,0.2,1.8,1.2,1.6,2.3l-6.2,34.3C136.2,188.7,135.4,189.3,134.4,189.3z"/>
	</g>
	<g>
		<path class="st5" d="M100.6,147.9c-0.4,0-0.9-0.1-1.3-0.3l-17-10c-1.2-0.7-1.6-2.2-0.9-3.4c0.7-1.2,2.2-1.6,3.4-0.9l17,10
			c1.2,0.7,1.6,2.2,0.9,3.4C102.3,147.5,101.5,147.9,100.6,147.9z"/>
	</g>
	<g>
		<path class="st5" d="M113,136.6c-1.1,0-2.1-0.7-2.4-1.8l-6.5-21.6c-0.4-1.3,0.4-2.7,1.7-3.1c1.3-0.4,2.7,0.4,3.1,1.7l6.5,21.6
			c0.4,1.3-0.4,2.7-1.7,3.1C113.5,136.6,113.2,136.6,113,136.6z"/>
	</g>
	<g>
		<path class="st5" d="M132.1,136.6c-0.2,0-0.5,0-0.7-0.1c-1.3-0.4-2.1-1.8-1.7-3.1l5.4-19.1c0.4-1.3,1.8-2.1,3.1-1.7
			c1.3,0.4,2.1,1.8,1.7,3.1l-5.4,19.1C134.2,135.9,133.2,136.6,132.1,136.6z"/>
	</g>
	<g>
		<path class="st0" d="M108.1,217.1c-0.1,0-0.2,0-0.3,0c-2.4-0.2-2.4-2.2-2.5-3.5c0-0.9,0-1.8-0.5-2.6c-0.3-0.5-0.5-0.6-0.5-0.6
			c-0.1,0-0.4,0.3-0.5,0.5c-0.3,0.5-0.9,0.6-1.4,0.4c-0.5-0.3-0.7-0.9-0.4-1.4c0.1-0.2,0.9-1.5,2.2-1.6c0.8,0,1.6,0.5,2.2,1.5
			c0.7,1.2,0.8,2.5,0.8,3.6c0,1.5,0.1,1.5,0.7,1.6c0.5,0,1.1-0.3,1.6-1c1.2-1.5,2-4.8,0.4-8.9c-2.1-5.5-11.1-3.1-11.2-3
			c-0.5,0.1-1.1-0.2-1.2-0.7c-0.1-0.5,0.2-1.1,0.7-1.2c0.4-0.1,10.8-2.9,13.6,4.2c1.9,4.9,0.8,8.9-0.7,10.9
			C110.3,216.5,109.2,217.1,108.1,217.1z"/>
	</g>
	<g>
		<path class="st0" d="M111.9,214.1c-0.5,0-0.9-0.3-1-0.8c-0.1-0.5,0.2-1.1,0.8-1.2c0.2,0,4-1,4.8-4.9c0.8-4.4-0.9-10-3.9-12.6
			c-2.5-2.2-9.8-1.4-12.4-0.9c-0.5,0.1-1.1-0.3-1.2-0.8c-0.1-0.5,0.3-1.1,0.8-1.2c1.1-0.2,10.4-1.9,14.1,1.4
			c3.6,3.2,5.5,9.4,4.6,14.5c-1,5.2-6.1,6.4-6.3,6.4C112,214.1,112,214.1,111.9,214.1z"/>
	</g>
	<g>
		<path class="st0" d="M115.7,185.2c-0.1,0-0.3,0-0.4-0.1c-4.3-1.7-11.1-0.5-11.2-0.5c-0.5,0.1-1.1-0.3-1.2-0.8
			c-0.1-0.5,0.3-1.1,0.8-1.2c0.3-0.1,7.4-1.4,12.3,0.6c0.5,0.2,0.8,0.8,0.6,1.3C116.5,185,116.1,185.2,115.7,185.2z"/>
	</g>
	<g>
		<path class="st0" d="M129.4,217.1c-0.4,0-0.8-0.2-0.9-0.6c0-0.1-3.7-9.3-10.8-8c0,0,0,0,0,0l-0.3-2c0,0,0,0,0,0
			c0.2,0,4.1-0.9,4.3-7.7c0-0.6,0.5-1,1-1c0.6,0,1,0.5,1,1c-0.1,4-1.3,6.4-2.6,7.7c2.3,0.5,4.4,1.9,6.3,4.1c2.1,2.5,3.1,5.1,3.1,5.2
			c0.2,0.5-0.1,1.1-0.6,1.3C129.6,217.1,129.5,217.1,129.4,217.1z"/>
	</g>
	<g>
		<path class="st11" d="M302.2,336.6l-19.1-0.2l-5.1-0.1l-36.1-0.4l-4,0l-36.2-0.4l-5-0.1l-19.9-0.2l5.9-19.5l1.2-4l7.5-24.6h96
			c-0.9,3.7,2,14.2,5.4,24.6c0.4,1.3,0.9,2.7,1.4,4C298.1,326.7,302.2,336.6,302.2,336.6z"/>
	</g>
	<g>
		<path class="st5" d="M207.9,281.6l-0.6,5.5l-2.8,24.6l-0.5,4l-2.3,19.8l-5-0.1l2.3-19.8l0.5-4l2.8-24.6l0.7-6
			c0.2-1.4,1.4-2.4,2.8-2.2C207.1,279,208,280.3,207.9,281.6z"/>
	</g>
	<g>
		<polygon class="st0" points="241.9,335.9 237.9,335.9 237.8,315.7 237.7,311.7 237.5,287.1 237.5,281.4 241.5,281.4 241.5,287.1 
			241.7,311.7 241.8,315.7 		"/>
	</g>
	<g>
		<path class="st5" d="M283.1,336.4l-5.1-0.1l-3-20.7l-0.6-4l-3.6-24.6l-0.6-4c-0.2-1.4,0.7-2.6,2.1-2.8s2.6,0.8,2.8,2.1l0.7,4.7
			l3.6,24.6l0.6,4L283.1,336.4z"/>
	</g>
	<g>
		<path class="st7" d="M294.3,315.7H182.7l1.2-4h109C293.3,313,293.8,314.4,294.3,315.7z"/>
	</g>
	<g>
		<path class="st6" d="M289.2,298.5c-6.2-1.6-23.5-3.4-23.5-3.4v-4.5l-74.3-0.7v-18.5c0,0-6.2,11.8-28.8,25.8
			c-22.6,14.1-39.5-31.5-44.5-42.2c-5-10.7,0-12.8,0-12.8l-2.3-8.5l22.1-8.7l5.7,6.4c5.9-1.4,14.2,15.7,14.2,15.7s8-24.6,10.3-29.6
			c2.3-5,1.4-11.8,2.3-23.9c0.5-7,10.7-13,19.2-16.8c6.3,5.4,11.9,8,11.9,8l0.8,9.8c0,0,92.7,51.8,105.6,25.5
			c0.9-1.8,1.6-3.5,2.1-5.3c13.6,23.7,22.8,51.9,24.7,64.5C338.3,304.6,295.4,300.1,289.2,298.5z"/>
	</g>
	<g>
		<path class="st12" d="M192.8,290.9c-1.1,0-2-0.8-2-1.9l-1-24.2c-16.6-15-6.8-32.4-3.1-39c0.3-0.5,0.6-1,0.8-1.4
			c1.9-3.6-1.2-11.2-2.4-13.6c-0.5-1-0.1-2.2,0.9-2.7c1-0.5,2.2-0.1,2.7,0.9c0.6,1.1,5.6,11.3,2.4,17.4c-0.2,0.4-0.5,0.9-0.8,1.4
			c-3.7,6.5-12.2,21.6,2.8,34.6l0.7,0.6l1.1,26C194.9,289.9,194,290.8,192.8,290.9C192.9,290.9,192.9,290.9,192.8,290.9z"/>
	</g>
	<g>
		<path class="st12" d="M167.4,273.4c-0.8,0-1.6-0.5-1.9-1.4c-3.2-10.2-7.5-22-9-23.4c-0.9-0.6-1.1-1.9-0.4-2.8
			c0.6-0.9,1.9-1.1,2.8-0.4c2.6,1.9,7.6,16.7,10.4,25.4c0.3,1.1-0.3,2.2-1.3,2.5C167.8,273.4,167.6,273.4,167.4,273.4z"/>
	</g>
	<g>
		<polygon class="st13" points="214.1,235.3 228.2,256.2 235.5,250.8 221.3,229.8 		"/>
	</g>
	<g>
		<path class="st9" d="M229.8,242.4c0,0,15.9-5.3,20.1,6.7c4.2,12,6.4,9.5,6.4,9.5l12.4,0.2l-0.7,28.3l-19.8-3.8
			c0,0-21.7,6.5-25-5.5c0,0-9.1-3-7.7-13.3c0,0-5.5-2.9-3.9-6.2c1.6-3.3,10.9-10.6,10.9-10.6s2.7,4.7,7.5,1.8
			C234.7,246.6,229.8,242.4,229.8,242.4z"/>
	</g>
	<g>
		<path class="st0" d="M225.1,275.1c-2.2,0-4.5-0.4-6.9-1.4c-0.5-0.2-0.8-0.8-0.5-1.3c0.2-0.5,0.8-0.7,1.3-0.5
			c7.8,3.3,15.8-1.3,15.9-1.4c0.5-0.3,1.1-0.1,1.4,0.4c0.3,0.5,0.1,1.1-0.4,1.4C235.7,272.5,231,275.1,225.1,275.1z"/>
	</g>
	<g>
		<path class="st0" d="M236.8,281.4C236.8,281.4,236.8,281.4,236.8,281.4c-1.8-0.1-10.8-0.4-12.5-1.2c-0.5-0.2-0.7-0.8-0.5-1.3
			c0.2-0.5,0.8-0.7,1.3-0.5c0.9,0.4,6.6,0.8,11.7,1c0.6,0,1,0.5,1,1C237.8,281,237.4,281.4,236.8,281.4z"/>
	</g>
	<g>
		<path class="st0" d="M222.4,267.6c-5.2,0-7.4-2.2-7.6-2.3c-0.4-0.4-0.4-1,0-1.4c0.4-0.4,1-0.4,1.4,0c0.1,0.1,4.4,4,15.3-0.2
			c0.5-0.2,1.1,0.1,1.3,0.6s-0.1,1.1-0.6,1.3C228.2,267,224.9,267.6,222.4,267.6z"/>
	</g>
	<g>
		<path class="st6" d="M309.9,214.9c-0.5,1.8-1.2,3.5-2.1,5.3c-12.9,26.3-105.6-25.5-105.6-25.5l-0.8-9.8c0,0-5.6-2.6-11.9-8
			c6.1-2.7,11.3-4.3,11.3-4.3l13.9,16.6c-3.3,4.3-9.3,5.4-9.3,5.4l8.1,4.1l9.4,4.8l39.9,4l-1.9-30.6
			C279.3,172.8,296.6,191.7,309.9,214.9z"/>
	</g>
	<g>
		<path class="st3" d="M309.9,214.9c-13.2-23.2-30.6-42.1-49.1-38.1c0,0-11.5,27.9-37.2,23.1l-22.8-27.2c0,0-5.2,1.6-11.3,4.3
			c-8.9-7.6-19.2-21-16.9-40.8c3.8-33.9,33.9-40.2,52-38.9c18.2,1.3,37.1,9.1,37.9,36.6c0.8,27.5,2,33.1,17.7,34.4
			C294.9,169.3,317.4,190.7,309.9,214.9z"/>
	</g>
	<g>
		<path class="st6" d="M262.7,207.4l-39.9-4l-9.4-4.8l-8.1-4.1c0,0,6.1-1.2,9.3-5.4l8.9,10.6c25.7,4.8,37.2-23.1,37.2-23.1
			L262.7,207.4z"/>
	</g>
	<g>
		<path class="st9" d="M260.8,176.8c0,0-11.5,27.9-37.2,23.1l-8.9-10.6c2.3-3.1,3.3-7.7-0.5-14.7c0,0-12.5-0.7-14.7-15
			c-2.6-16.9-2.3-26.7-2.3-26.7s0.3-16.8,13.6-16.3c0,0,5.3,28,28.5,21.5c0,0,7.8-6.8,12.1,1c3.8,6.9-6.3,14.1-6.3,14.1l0.9,23.7
			H260.8z"/>
	</g>
	<g>
		<path class="st14" d="M237.3,163.2c-0.2,0.8-7,24.5-23.8,35.5l-8.1-4.1c0,0,17.8-3.4,8.9-20.2C214.3,174.5,227,174.9,237.3,163.2z
			"/>
	</g>
	<g>
		<path class="st2" d="M224.9,222.9c-0.1,0-0.2,0-0.2,0l0.2-3c0,0,0,0,0,0c0.7,0,19-0.4,21.3-43.2h1.7c-1.4,25.9-7.6,38.1-13,42.9
			C230.4,223.6,225.6,224.8,224.9,222.9z"/>
	</g>
	<g>
		<path class="st3" d="M216.3,135.7C216.3,135.7,216.3,135.6,216.3,135.7l-3.6-1.8c0.3-0.6,3-5.7,14.3-2.4c1.1,0.3,1.7,1.4,1.4,2.5
			s-1.4,1.7-2.5,1.4C218,133.1,216.3,135.7,216.3,135.7z"/>
	</g>
	<g>
		<path class="st3" d="M192.2,138.6c-0.7,0-1.3-0.3-1.7-0.9c-0.6-0.9-0.3-2.2,0.6-2.8c4.1-2.7,11-1.1,11.8-0.9
			c1.1,0.3,1.7,1.3,1.5,2.4s-1.3,1.7-2.4,1.5l0,0c-1.6-0.4-6.3-1.1-8.6,0.4C193,138.5,192.6,138.6,192.2,138.6z"/>
	</g>
	<g>
		<path class="st0" d="M209.8,163.6c-3.3,0-5-1.5-5.1-1.6c-0.4-0.4-0.4-1,0-1.4c0.4-0.4,1-0.4,1.4,0c0.1,0.1,3.2,2.8,10-0.7
			c0.5-0.3,1.1-0.1,1.3,0.4c0.3,0.5,0.1,1.1-0.4,1.3C214.1,163.1,211.7,163.6,209.8,163.6z"/>
	</g>
	<g>
		<path class="st0" d="M244.8,148.4c-0.4,0-0.8-0.2-0.9-0.6c-0.2-0.5,0-1.1,0.5-1.3c0,0,4-1.7,3.3-4.1c-0.2-0.5-0.4-0.7-0.8-0.9
			c-1.1-0.5-3.1,0.2-3.7,0.5c-0.5,0.2-1.1,0-1.3-0.5c-0.2-0.5,0-1.1,0.5-1.3c0.3-0.2,3.2-1.5,5.3-0.6c0.9,0.4,1.6,1.1,1.9,2.1
			c1.1,3.3-2.2,5.7-4.4,6.6C245,148.4,244.9,148.4,244.8,148.4z"/>
	</g>
	<g>
		<ellipse class="st3" cx="218.6" cy="142.9" rx="2" ry="2.6"/>
	</g>
	<g>
		<ellipse class="st2" cx="243.9" cy="153.7" rx="2.8" ry="3.1"/>
	</g>
	<g>
		<ellipse class="st3" cx="203.4" cy="143.9" rx="2" ry="2.6"/>
	</g>
	<g>
		<path class="st0" d="M209.6,157.8c-0.4,0-0.8-0.2-0.9-0.6c-0.2-0.1-0.7-0.2-1.2-0.4c-0.6-0.2-1.4-0.4-2.4-0.7
			c-0.8-0.2-1.3-0.7-1.5-1.3c-0.5-1.3,0.4-2.9,1.6-5c1-1.7,2.2-3.7,2.6-5.7c1.1-4.4-1.6-5.8-1.8-5.9c-0.5-0.2-0.7-0.8-0.5-1.3
			c0.2-0.5,0.8-0.7,1.3-0.5c1.5,0.7,4,3.3,2.8,8.1c-0.6,2.3-1.8,4.5-2.9,6.2c-0.6,1.1-1.7,2.9-1.5,3.3l0,0c0,0,0.1,0.1,0.3,0.1
			c1,0.3,1.7,0.5,2.3,0.7c1.4,0.4,2.2,0.6,2.6,1.6c0.2,0.5-0.1,1.1-0.7,1.2C209.8,157.8,209.7,157.8,209.6,157.8z M208.7,157.2
			L208.7,157.2L208.7,157.2z"/>
	</g>
	<g>
		<path class="st15" d="M224.4,229c5.5-7.3,2.5-28.8-12.1-54.1c-14.6-25.3-31.7-38.4-40.8-37.6c-4.8,0.4-9.6,1.8-13.4,4.8
			c-7.8,6.2-8.4,13.7-6.3,22.8c3,13,9.4,25.4,16.4,36.6c7,11.2,15.2,22.3,25.5,30.8c4.7,3.9,10.5,7.4,16.9,6.5
			C216.4,237.9,221,233.5,224.4,229z"/>
	</g>
	<g>
		<ellipse transform="matrix(0.866 -0.5 0.5 0.866 -69.6118 118.8115)" class="st6" cx="186.9" cy="189.3" rx="16.5" ry="50"/>
	</g>
	<g>
		<path class="st12" d="M281.8,262c-1,0-1.9-0.8-2-1.9l-3.4-52.6c-0.1-1.1,0.8-2.1,1.9-2.1c1.1-0.1,2.1,0.8,2.1,1.9l3.4,52.6
			c0.1,1.1-0.8,2.1-1.9,2.1C281.9,262,281.8,262,281.8,262z"/>
	</g>
	<g>
		<path class="st12" d="M290.2,301.4c-0.2,0-0.5,0-0.7-0.1c-4.2-1.7-16.3-5.7-21.8-4.5l-2.5,0.6l1.8-41.2l2.5,0.8
			c0,0,5.4,1.8,14.4,1.1c9.5-0.7,34.9-2.3,35.2-2.3c1.1-0.1,2.1,0.8,2.1,1.9c0.1,1.1-0.8,2.1-1.9,2.1c-0.3,0-25.7,1.6-35.1,2.3
			c-6.2,0.5-10.8-0.1-13.4-0.6l-1.3,31.2c8.2-0.2,21,4.8,21.6,5c1,0.4,1.5,1.6,1.1,2.6C291.7,301,290.9,301.4,290.2,301.4z"/>
	</g>
	<rect x="138.8" y="79.4" class="st2" width="76" height="7"/>
	<rect x="138.8" y="93.5" class="st2" width="53.2" height="7"/>
	<rect x="240" y="27.4" class="st2" width="53.2" height="7"/>
	<rect x="240" y="41.5" class="st2" width="53.2" height="7"/>
	<rect x="240" y="55.6" class="st2" width="29.7" height="7"/>
	<g>
		<path class="st3" d="M194.5,176.9c-10.1,1.1-21.9,13.2-21.9,13.2s-1-1.9-2.5-4.8c0.7-0.7,1.4-1.3,2.2-2c16.9-13.2,1-19.5-0.8-31.7
			C181.6,156.9,194.5,176.9,194.5,176.9z"/>
	</g>
	<g>
		<path class="st1" d="M172.3,183.2c-0.8,0.6-1.5,1.3-2.2,2c-4.5-9.2-12.8-28.7-6.2-33.9c2.1-1.6,4.7-1.3,7.6,0.3
			C173.3,163.8,189.3,170.1,172.3,183.2z"/>
	</g>
	<g>
		<path class="st2" d="M28.2,107.6l19-5.4c0.7-0.2,1.4,0.5,1.1,1.2l-1.6,4l-14.1,1.1c-0.3,0-0.3,0.4,0,0.4l14,1.2l2.1,2.1
			c0.6,0.6,0.1,1.6-0.7,1.5l-3.7-0.3l-1.8,4.6c-0.2,0.5-0.9,0.7-1.3,0.4l-13.3-9.2C27.3,108.7,27.5,107.8,28.2,107.6z"/>
	</g>
</g>
</svg>
